<?xml version="1.0" standalone="no"?>
<!DOCTYPE svg PUBLIC "-//W3C//DTD SVG 20010904//EN"
 "http://www.w3.org/TR/2001/REC-SVG-20010904/DTD/svg10.dtd">
<svg version="1.0" xmlns="http://www.w3.org/2000/svg"
 width="260.000000pt" height="260.000000pt" viewBox="0 0 260.000000 260.000000"
 preserveAspectRatio="xMidYMid meet">
<metadata>
Created by potrace 1.11, written by Peter Selinger 2001-2013
</metadata>
<g transform="translate(0.000000,260.000000) scale(0.100000,-0.100000)"
fill="#000000" stroke="none">
<path d="M1947 2508 c-60 -66 -167 -279 -251 -498 -51 -133 -56 -141 -97 -180
-44 -41 -60 -77 -52 -117 11 -58 4 -82 -77 -273 -45 -107 -89 -211 -97 -230
-8 -19 -22 -53 -32 -74 l-17 -39 -16 44 c-18 52 -38 118 -42 139 -1 8 -13 48
-25 89 -13 41 -24 83 -27 95 -2 12 -8 30 -12 41 -5 11 -15 43 -22 70 -16 67
-17 70 -40 150 -31 108 -41 157 -35 164 12 11 189 9 210 -2 11 -6 23 -10 26
-10 4 1 19 4 34 7 40 7 62 32 74 84 19 80 -26 172 -93 190 -30 9 -244 9 -290
0 -21 -3 -23 2 -47 117 -32 160 -62 208 -132 211 -38 2 -48 -2 -64 -25 -65
-90 -76 -202 -29 -311 4 -9 0 -24 -7 -34 -14 -19 -31 -22 -194 -30 -40 -1 -78
-8 -85 -14 -8 -6 -68 -10 -158 -10 -80 0 -164 -3 -188 -7 -54 -9 -101 -54
-103 -98 -7 -147 39 -191 196 -186 47 2 85 7 85 11 0 4 38 8 84 8 47 0 88 5
91 10 11 17 92 12 99 -6 3 -9 4 -19 2 -22 -6 -10 -15 -92 -21 -191 -3 -46 -7
-87 -10 -91 -3 -5 -7 -61 -10 -127 -3 -65 -8 -140 -11 -168 -13 -109 -16 -200
-17 -436 0 -278 6 -318 63 -380 26 -29 44 -39 70 -40 46 -3 55 3 83 54 20 38
22 53 18 162 -8 277 -1 651 14 725 3 14 7 79 11 145 3 66 8 131 10 145 2 14 7
57 9 95 11 149 15 179 25 189 14 14 24 0 39 -54 7 -25 18 -65 26 -90 7 -25 18
-65 24 -90 7 -25 17 -58 23 -75 5 -16 14 -46 18 -65 4 -19 15 -60 25 -90 9
-30 20 -71 25 -90 5 -19 13 -51 18 -70 15 -56 60 -220 77 -282 8 -32 22 -84
30 -115 22 -81 60 -160 82 -171 71 -35 181 45 204 150 13 57 81 228 91 228 11
0 10 -37 -2 -100 -6 -29 -13 -87 -16 -129 -3 -42 -7 -85 -9 -96 -1 -11 -6 -36
-9 -55 -3 -19 -8 -62 -11 -95 -4 -32 -9 -63 -12 -67 -2 -5 -7 -31 -9 -59 -3
-28 -9 -61 -14 -75 -13 -34 -13 -169 1 -217 12 -43 49 -84 84 -93 22 -6 243 1
276 8 7 2 20 9 27 16 13 11 47 15 169 17 28 1 58 7 67 14 10 8 56 14 131 16
87 3 120 7 128 18 7 8 27 17 46 21 107 20 120 201 20 274 -42 31 -58 31 -169
1 -25 -6 -54 -11 -65 -11 -10 1 -24 -3 -30 -7 -5 -5 -28 -11 -50 -15 -22 -3
-69 -10 -105 -16 -36 -6 -83 -12 -105 -13 -22 -1 -43 -6 -47 -11 -9 -13 -110
-16 -126 -3 -12 9 -10 134 3 207 7 36 12 76 20 144 8 67 22 96 47 96 9 0 19 4
22 9 6 9 73 20 141 24 22 1 43 6 47 12 4 5 26 10 50 11 24 1 54 4 68 7 83 17
138 28 160 31 14 1 33 6 43 11 10 4 21 5 24 2 11 -12 67 45 85 85 22 48 23 87
4 131 -12 28 -66 86 -66 71 0 -4 -6 -2 -12 3 -16 11 -110 9 -129 -3 -8 -5 -22
-10 -31 -11 -9 -2 -36 -10 -60 -18 -24 -9 -50 -18 -58 -20 -8 -2 -15 -4 -15
-6 0 -1 -13 -3 -30 -4 -16 -1 -42 -7 -56 -13 -15 -6 -40 -11 -55 -10 -16 0
-40 -4 -54 -10 -21 -8 -36 -8 -82 -3 -3 1 -5 16 -3 34 11 90 17 121 22 130 3
5 7 26 9 46 3 20 9 61 14 91 5 30 12 76 15 102 4 33 12 51 26 58 10 6 19 8 19
5 0 -3 10 0 23 6 12 7 38 14 57 16 19 2 67 9 105 14 39 6 115 13 170 15 55 3
107 8 115 11 8 4 38 7 65 8 73 2 92 11 120 59 45 76 42 163 -6 217 -27 31 -31
32 -106 31 -120 -2 -170 -7 -187 -21 -9 -7 -48 -15 -88 -18 -39 -2 -81 -10
-92 -16 -12 -6 -37 -12 -56 -14 -19 -1 -47 -5 -62 -9 -24 -5 -28 -3 -28 15 0
12 4 29 9 39 5 9 55 110 111 224 102 211 107 225 101 328 -2 41 -46 80 -89 80
-33 0 -44 -7 -85 -52z"/>
</g>
</svg>
